<svg width="40" height="40" viewBox="0 0 40 40" fill="none" xmlns="http://www.w3.org/2000/svg">
<path d="M19.8273 1.55518C9.67609 1.55518 1.46875 9.76252 1.46875 19.9137C1.46875 30.0649 9.67609 38.2722 19.8273 38.2722C29.9785 38.2722 38.1858 30.0649 38.1858 19.9137C38.1858 9.80572 29.9785 1.55518 19.8273 1.55518ZM18.877 9.11457H20.7344C20.9504 9.11457 21.1232 9.28736 21.1232 9.50334L20.864 24.4061C20.864 24.6221 20.6912 24.7949 20.4752 24.7949H19.1793C18.9634 24.7949 18.7906 24.6221 18.7906 24.4061L18.4882 9.50334C18.4882 9.28736 18.661 9.11457 18.877 9.11457ZM20.9936 30.756C20.648 31.1016 20.2592 31.2312 19.8273 31.2312C19.3953 31.2312 19.0065 31.1016 18.7042 30.7992C18.3586 30.4969 18.1426 30.0217 18.1426 29.5465C18.1426 29.1146 18.3154 28.7258 18.6178 28.3802C18.9202 28.0347 19.3953 27.8619 19.8705 27.8619C20.3888 27.8619 20.8208 28.0779 21.1664 28.4666C21.3824 28.7258 21.5119 29.0282 21.5551 29.3738C21.5551 29.9353 21.3824 30.3673 20.9936 30.756Z" fill="#43AAA0"/>
</svg>
