<svg width="14" height="14" viewBox="0 0 14 14" fill="none" xmlns="http://www.w3.org/2000/svg">
<g clip-path="url(#clip0_1_53)">
<path d="M11.9498 10.0502C11.1873 9.28784 10.2799 8.72343 9.28974 8.38177C10.3502 7.65139 11.0469 6.42905 11.0469 5.04688C11.0469 2.81543 9.23144 1 7 1C4.76856 1 2.95312 2.81543 2.95312 5.04688C2.95312 6.42905 3.64982 7.65139 4.71029 8.38177C3.72017 8.72343 2.81269 9.28784 2.05026 10.0502C0.728137 11.3724 0 13.1302 0 15H1.09375C1.09375 11.7433 3.74328 9.09375 7 9.09375C10.2567 9.09375 12.9062 11.7433 12.9062 15H14C14 13.1302 13.2719 11.3724 11.9498 10.0502ZM7 8C5.37165 8 4.04688 6.67525 4.04688 5.04688C4.04688 3.4185 5.37165 2.09375 7 2.09375C8.62835 2.09375 9.95312 3.4185 9.95312 5.04688C9.95312 6.67525 8.62835 8 7 8Z" fill="white"/>
</g>
<defs>
<clipPath id="clip0_1_53">
<rect width="14" height="14" fill="white"/>
</clipPath>
</defs>
</svg>
