<svg width="69" height="69" viewBox="0 0 69 69" fill="none" xmlns="http://www.w3.org/2000/svg">
<g clip-path="url(#clip0_518_725)">
<path d="M34.5 69C53.5538 69 69 53.5538 69 34.5C69 15.4462 53.5538 0 34.5 0C15.4462 0 0 15.4462 0 34.5C0 53.5538 15.4462 69 34.5 69Z" fill="#60769D"/>
<path d="M32.9802 18.8H37.0282V40.8801H32.9802V18.8ZM35.0042 51.46C34.1149 51.46 33.3482 51.1534 32.7042 50.5401C32.0909 49.8961 31.7842 49.1294 31.7842 48.2401C31.7842 47.3201 32.0909 46.5533 32.7042 45.94C33.3482 45.3267 34.1149 45.0201 35.0042 45.0201C35.8935 45.0201 36.6449 45.3267 37.2582 45.94C37.9022 46.5533 38.2242 47.3201 38.2242 48.2401C38.2242 49.1294 37.9022 49.8961 37.2582 50.5401C36.6449 51.1534 35.8935 51.46 35.0042 51.46Z" fill="white"/>
</g>
<defs>
<clipPath id="clip0_518_725">
<rect width="69" height="69" fill="white"/>
</clipPath>
</defs>
</svg>
