<svg width="450" height="481" viewBox="0 0 450 481" fill="none" xmlns="http://www.w3.org/2000/svg">
<circle cx="224.973" cy="240" r="191" fill="url(#paint0_radial_52_591)"/>
<path d="M227.016 33.9194H223.307V61.747H227.016V33.9194Z" fill="#242E46"/>
<path d="M124.188 60.4772L120.975 62.332L134.889 86.4314L138.102 84.5766L124.188 60.4772Z" fill="#242E46"/>
<path d="M48.412 134.895L46.5571 138.107L70.6565 152.021L72.5114 148.809L48.412 134.895Z" fill="#242E46"/>
<path d="M20 237.228V240.938H47.8276V237.228H20Z" fill="#242E46"/>
<path d="M46.5585 340.056L48.4133 343.269L72.5127 329.355L70.6579 326.143L46.5585 340.056Z" fill="#242E46"/>
<path d="M401.909 343.268L403.763 340.055L379.664 326.142L377.809 329.354L401.909 343.268Z" fill="#242E46"/>
<path d="M430.323 240.938V237.228H402.495V240.938H430.323Z" fill="#242E46"/>
<path d="M403.765 138.107L401.91 134.894L377.811 148.808L379.665 152.021L403.765 138.107Z" fill="#242E46"/>
<path d="M329.347 62.3334L326.134 60.4785L312.22 84.5779L315.433 86.4328L329.347 62.3334Z" fill="#242E46"/>
<path d="M208.449 34.5993L206.113 34.8037L207.515 50.8386L209.852 50.6341L208.449 34.5993Z" fill="#A6AEC1"/>
<path d="M190.69 36.8334L188.38 37.2407L191.175 53.0923L193.485 52.685L190.69 36.8334Z" fill="#A6AEC1"/>
<path d="M156.093 45.8911L153.889 46.6934L159.394 61.8187L161.598 61.0165L156.093 45.8911Z" fill="#A6AEC1"/>
<path d="M139.519 52.6454L137.394 53.6367L144.196 68.2247L146.322 67.2335L139.519 52.6454Z" fill="#A6AEC1"/>
<path d="M108.446 70.35L106.525 71.6953L115.757 84.8805L117.678 83.5351L108.446 70.35Z" fill="#A6AEC1"/>
<path d="M94.1842 81.1632L92.3875 82.6709L102.734 95.0012L104.531 93.4935L94.1842 81.1632Z" fill="#A6AEC1"/>
<path d="M68.7513 106.31L67.2437 108.106L79.574 118.453L81.0817 116.656L68.7513 106.31Z" fill="#A6AEC1"/>
<path d="M57.7738 120.446L56.4285 122.367L69.6136 131.6L70.959 129.678L57.7738 120.446Z" fill="#A6AEC1"/>
<path d="M39.7176 151.312L38.7263 153.438L53.3143 160.24L54.3056 158.114L39.7176 151.312Z" fill="#A6AEC1"/>
<path d="M32.7739 167.81L31.9717 170.014L47.0971 175.519L47.8993 173.315L32.7739 167.81Z" fill="#A6AEC1"/>
<path d="M23.3199 202.3L22.9126 204.61L38.7641 207.405L39.1714 205.095L23.3199 202.3Z" fill="#A6AEC1"/>
<path d="M20.8814 220.031L20.677 222.367L36.7119 223.77L36.9163 221.433L20.8814 220.031Z" fill="#A6AEC1"/>
<path d="M20.6789 255.793L20.8833 258.13L36.9182 256.727L36.7137 254.39L20.6789 255.793Z" fill="#A6AEC1"/>
<path d="M22.9133 273.551L23.3206 275.861L39.1721 273.066L38.7648 270.756L22.9133 273.551Z" fill="#A6AEC1"/>
<path d="M26.6883 291.049L27.2954 293.315L42.8431 289.149L42.236 286.883L26.6883 291.049Z" fill="#A6AEC1"/>
<path d="M31.9722 308.148L32.7744 310.352L47.8998 304.847L47.0976 302.643L31.9722 308.148Z" fill="#A6AEC1"/>
<path d="M38.7277 324.726L39.719 326.851L54.307 320.049L53.3158 317.923L38.7277 324.726Z" fill="#A6AEC1"/>
<path d="M410.606 326.848L411.598 324.723L397.01 317.92L396.018 320.046L410.606 326.848Z" fill="#A6AEC1"/>
<path d="M417.549 310.353L418.351 308.149L403.225 302.644L402.423 304.848L417.549 310.353Z" fill="#A6AEC1"/>
<path d="M423.028 293.313L423.635 291.048L408.088 286.882L407.481 289.147L423.028 293.313Z" fill="#A6AEC1"/>
<path d="M427.002 275.861L427.409 273.551L411.557 270.756L411.15 273.066L427.002 275.861Z" fill="#A6AEC1"/>
<path d="M429.439 258.129L429.643 255.792L413.608 254.389L413.404 256.726L429.439 258.129Z" fill="#A6AEC1"/>
<path d="M429.647 222.37L429.442 220.033L413.407 221.436L413.612 223.773L429.647 222.37Z" fill="#A6AEC1"/>
<path d="M427.413 204.61L427.006 202.3L411.154 205.095L411.561 207.405L427.413 204.61Z" fill="#A6AEC1"/>
<path d="M423.634 187.116L423.027 184.85L407.479 189.016L408.086 191.282L423.634 187.116Z" fill="#A6AEC1"/>
<path d="M418.353 170.014L417.551 167.81L402.425 173.315L403.228 175.519L418.353 170.014Z" fill="#A6AEC1"/>
<path d="M411.596 153.439L410.605 151.313L396.017 158.115L397.008 160.241L411.596 153.439Z" fill="#A6AEC1"/>
<path d="M393.896 122.366L392.55 120.444L379.365 129.677L380.71 131.598L393.896 122.366Z" fill="#A6AEC1"/>
<path d="M383.082 108.104L381.574 106.307L369.244 116.654L370.751 118.45L383.082 108.104Z" fill="#A6AEC1"/>
<path d="M371.065 94.8378L369.406 93.1792L358.024 104.561L359.683 106.219L371.065 94.8378Z" fill="#A6AEC1"/>
<path d="M357.936 82.6713L356.14 81.1636L345.793 93.4939L347.59 95.0016L357.936 82.6713Z" fill="#A6AEC1"/>
<path d="M343.8 71.6945L341.879 70.3491L332.647 83.5343L334.568 84.8796L343.8 71.6945Z" fill="#A6AEC1"/>
<path d="M312.93 53.6363L310.804 52.645L304.002 67.233L306.128 68.2243L312.93 53.6363Z" fill="#A6AEC1"/>
<path d="M296.434 46.6953L294.229 45.8931L288.724 61.0185L290.928 61.8207L296.434 46.6953Z" fill="#A6AEC1"/>
<path d="M279.395 41.2125L277.13 40.6055L272.964 56.1531L275.229 56.7602L279.395 41.2125Z" fill="#A6AEC1"/>
<path d="M261.944 37.2393L259.634 36.832L256.839 52.6836L259.149 53.0909L261.944 37.2393Z" fill="#A6AEC1"/>
<path d="M244.211 34.8026L241.874 34.5981L240.471 50.633L242.808 50.8374L244.211 34.8026Z" fill="#A6AEC1"/>
<path d="M226.403 33.9194H223.92V57.0409H226.403V33.9194Z" fill="#242E46"/>
<path d="M173.261 40.5894L170.863 41.2319L176.848 63.5656L179.246 62.9231L173.261 40.5894Z" fill="#242E46"/>
<path d="M123.656 60.7861L121.506 62.0273L133.067 82.0511L135.217 80.8099L123.656 60.7861Z" fill="#242E46"/>
<path d="M80.9685 93.1313L79.2131 94.8867L95.5625 111.236L97.3179 109.481L80.9685 93.1313Z" fill="#242E46"/>
<path d="M48.1053 135.424L46.864 137.574L66.8878 149.135L68.1291 146.985L48.1053 135.424Z" fill="#242E46"/>
<path d="M27.312 184.781L26.6694 187.179L49.0031 193.163L49.6456 190.766L27.312 184.781Z" fill="#242E46"/>
<path d="M20 237.842V240.324H43.1215V237.842H20Z" fill="#242E46"/>
<path d="M26.6692 290.983L27.3118 293.381L49.6454 287.397L49.0029 284.999L26.6692 290.983Z" fill="#242E46"/>
<path d="M46.8652 340.588L48.1064 342.738L68.1302 331.177L66.889 329.027L46.8652 340.588Z" fill="#242E46"/>
<path d="M402.216 342.737L403.457 340.587L383.433 329.026L382.192 331.176L402.216 342.737Z" fill="#242E46"/>
<path d="M423.014 293.382L423.656 290.984L401.323 285L400.68 287.398L423.014 293.382Z" fill="#242E46"/>
<path d="M430.323 240.324V237.841H407.202V240.324H430.323Z" fill="#242E46"/>
<path d="M423.651 187.18L423.008 184.782L400.675 190.766L401.317 193.164L423.651 187.18Z" fill="#242E46"/>
<path d="M403.456 137.575L402.215 135.425L382.191 146.986L383.432 149.136L403.456 137.575Z" fill="#242E46"/>
<path d="M371.112 94.8873L369.357 93.1318L353.008 109.481L354.763 111.237L371.112 94.8873Z" fill="#242E46"/>
<path d="M328.817 62.0264L326.667 60.7852L315.107 80.809L317.257 82.0502L328.817 62.0264Z" fill="#242E46"/>
<path d="M279.46 41.2334L277.062 40.5908L271.078 62.9245L273.476 63.567L279.46 41.2334Z" fill="#242E46"/>
<defs>
<radialGradient id="paint0_radial_52_591" cx="0" cy="0" r="1" gradientUnits="userSpaceOnUse" gradientTransform="translate(224.973 240) rotate(-90) scale(179.5)">
<stop stop-color="#E5E7EB"/>
<stop offset="0.395833" stop-color="white"/>
<stop offset="0.5625" stop-color="#EFF0F3"/>
<stop offset="0.84375" stop-color="white"/>
</radialGradient>
</defs>
</svg>
