<svg width="14" height="14" viewBox="0 0 14 14" fill="none" xmlns="http://www.w3.org/2000/svg">
<path d="M6.66667 0C4.95759 0.00487479 3.31566 0.665943 2.08 1.84667V0.666667C2.08 0.489856 2.00976 0.320286 1.88474 0.195262C1.75971 0.0702379 1.59014 0 1.41333 0C1.23652 0 1.06695 0.0702379 0.941929 0.195262C0.816905 0.320286 0.746667 0.489856 0.746667 0.666667V3.66667C0.746667 3.84348 0.816905 4.01305 0.941929 4.13807C1.06695 4.2631 1.23652 4.33333 1.41333 4.33333H4.41333C4.59014 4.33333 4.75971 4.2631 4.88474 4.13807C5.00976 4.01305 5.08 3.84348 5.08 3.66667C5.08 3.48986 5.00976 3.32029 4.88474 3.19526C4.75971 3.07024 4.59014 3 4.41333 3H2.81333C3.67052 2.10424 4.813 1.5351 6.04436 1.39045C7.27571 1.24579 8.51899 1.53465 9.56044 2.20736C10.6019 2.88008 11.3764 3.89461 11.7509 5.07653C12.1253 6.25845 12.0763 7.5339 11.6123 8.6836C11.1482 9.83329 10.2981 10.7854 9.20811 11.3762C8.11811 11.967 6.85632 12.1596 5.6397 11.9209C4.42308 11.6822 3.32764 11.027 2.54173 10.0681C1.75581 9.10923 1.32852 7.90648 1.33333 6.66667C1.33333 6.48986 1.2631 6.32029 1.13807 6.19526C1.01305 6.07024 0.843478 6 0.666667 6C0.489856 6 0.320286 6.07024 0.195262 6.19526C0.0702379 6.32029 0 6.48986 0 6.66667C0 7.98521 0.390993 9.27414 1.12354 10.3705C1.85608 11.4668 2.89727 12.3213 4.11544 12.8259C5.33362 13.3304 6.67406 13.4625 7.96727 13.2052C9.26047 12.948 10.4484 12.3131 11.3807 11.3807C12.3131 10.4484 12.948 9.26047 13.2052 7.96727C13.4625 6.67406 13.3304 5.33362 12.8259 4.11544C12.3213 2.89727 11.4668 1.85608 10.3705 1.12354C9.27414 0.390993 7.98521 0 6.66667 0ZM6.66667 4C6.48986 4 6.32029 4.07024 6.19526 4.19526C6.07024 4.32029 6 4.48986 6 4.66667V6.66667C6 6.84348 6.07024 7.01305 6.19526 7.13807C6.32029 7.26309 6.48986 7.33333 6.66667 7.33333H8C8.17681 7.33333 8.34638 7.26309 8.4714 7.13807C8.59643 7.01305 8.66667 6.84348 8.66667 6.66667C8.66667 6.48986 8.59643 6.32029 8.4714 6.19526C8.34638 6.07024 8.17681 6 8 6H7.33333V4.66667C7.33333 4.48986 7.26309 4.32029 7.13807 4.19526C7.01305 4.07024 6.84348 4 6.66667 4Z" fill="#C0C0C0"/>
</svg>
